<svg width="82" height="65" viewBox="0 0 82 65" fill="none" xmlns="http://www.w3.org/2000/svg">
<circle cx="19.2" cy="19.4119" r="19.2" fill="#4285F4"/>
<path d="M81.2446 57.4638C78.9159 58.458 76.8547 58.5321 74.3976 57.939C74.0177 58.0012 74.5128 58.3362 74.6359 58.4408C75.7625 59.3317 77.5974 59.3542 79.0457 59.2788C75.5361 61.3175 71.0668 63.0636 66.9986 62.6135C62.2751 62.1859 57.3888 58.8101 56.9056 53.8391C59.8313 52.7998 62.7954 50.9928 64.3019 48.177C65.8985 44.3709 61.9587 42.446 58.7656 44.7535C56.1761 46.6254 54.8218 49.8437 54.7186 53.005C42.4465 55.4793 34.4478 44.821 37.0161 33.2625C37.0198 33.2484 37.0206 33.2337 37.0184 33.2192C37.0163 33.2048 37.0112 33.191 37.0035 33.1786C36.9958 33.1662 36.9857 33.1555 36.9737 33.1472C36.9618 33.1388 36.9483 33.133 36.934 33.1301C36.9202 33.1263 36.9059 33.1253 36.8918 33.1271C36.8776 33.1289 36.864 33.1335 36.8517 33.1407C36.8393 33.1478 36.8286 33.1574 36.82 33.1687C36.8114 33.1801 36.8051 33.1931 36.8016 33.2069C33.586 45.2062 42.0004 56.4947 54.7967 54.3792C55.2137 58.0608 57.8323 61.2089 61.0903 62.8081C66.8927 65.7458 74.5062 63.7468 79.3938 59.8255C79.2694 60.4874 78.8974 61.0805 78.7703 61.7398C78.622 62.5116 78.9146 63.9242 79.2654 63.4873C79.4211 62.7511 79.6331 62.0279 79.8995 61.3241C80.1564 60.6079 80.4688 59.807 80.7587 59.104L80.817 58.9716L81.3915 57.624C81.4012 57.6029 81.4045 57.5794 81.4009 57.5564C81.3973 57.5335 81.387 57.5121 81.3713 57.495C81.3556 57.4778 81.3352 57.4657 81.3127 57.4602C81.2901 57.4546 81.2664 57.4559 81.2446 57.4638ZM58.3009 48.1187C60.2748 44.3259 64.7878 44.96 62.1904 48.5304C60.7653 50.2142 58.9462 51.5198 56.895 52.3312C57.0341 50.8377 57.5152 49.3964 58.3009 48.1187Z" fill="#4285F4"/>
<path d="M38.7835 50.675C38.7929 50.6635 38.8051 50.6546 38.8189 50.649C38.8327 50.6434 38.8476 50.6414 38.8624 50.6431C38.8771 50.6449 38.8912 50.6502 38.9034 50.6588C38.9155 50.6674 38.9253 50.6789 38.9318 50.6922C40.1405 53.1175 42.8451 54.861 45.2426 55.0411C45.2641 55.0424 45.2843 55.052 45.2991 55.0677C45.3139 55.0834 45.3221 55.1042 45.322 55.1258C45.3218 55.1475 45.3144 55.1684 45.301 55.1855C45.2876 55.2025 45.2689 55.2145 45.2479 55.2198C42.4903 55.8976 39.6877 53.2737 38.761 50.8418C38.7502 50.8141 38.7471 50.784 38.752 50.7546C38.7569 50.7253 38.7696 50.6978 38.7888 50.675H38.7835Z" fill="#4285F4"/>
<path d="M64.6276 42.6644C66.2056 42.4897 67.1839 44.4847 66.4373 45.7927C66.4325 45.8017 66.4249 45.8088 66.4155 45.8128C66.4062 45.8169 66.3958 45.8177 66.386 45.8151C66.3762 45.8124 66.3675 45.8066 66.3615 45.7984C66.3554 45.7903 66.3523 45.7803 66.3526 45.7702C66.3526 44.4821 65.8627 43.2549 64.617 42.7518C64.6073 42.7485 64.599 42.7419 64.5935 42.7331C64.5881 42.7244 64.5858 42.7141 64.587 42.7038C64.5882 42.6936 64.5929 42.6841 64.6003 42.677C64.6077 42.6698 64.6173 42.6654 64.6276 42.6644Z" fill="#4285F4"/>
<path d="M38.4842 49.8662C38.3587 49.8771 38.2336 49.8407 38.1334 49.7642C38.0575 49.7097 37.9999 49.6336 37.9679 49.5458C37.9372 49.4608 37.9331 49.3684 37.956 49.281C37.9867 49.1623 38.0533 49.056 38.1466 48.9765C38.2586 49.0072 38.3631 49.0603 38.4538 49.1327C38.515 49.1812 38.5615 49.2458 38.5879 49.3192C38.6144 49.3927 38.6197 49.4721 38.6034 49.5484C38.5782 49.6592 38.5381 49.7661 38.4842 49.8662Z" fill="#4285F4"/>
<path d="M66.2612 46.6333C66.2625 46.6259 66.2661 46.619 66.2716 46.6137C66.277 46.6084 66.284 46.605 66.2916 46.604C66.2991 46.603 66.3067 46.6043 66.3134 46.608C66.3201 46.6116 66.3255 46.6172 66.3287 46.6241C66.3651 46.6962 66.3862 46.7751 66.3909 46.8557C66.3967 46.9649 66.3814 47.0741 66.3459 47.1774C66.3106 47.2804 66.2553 47.3753 66.1831 47.4568C66.1303 47.5179 66.0654 47.5675 65.9925 47.6024C65.9857 47.6052 65.9783 47.606 65.9712 47.6047C65.964 47.6034 65.9574 47.5999 65.9521 47.5948C65.9469 47.5897 65.9433 47.5832 65.9418 47.5761C65.9402 47.569 65.9408 47.5615 65.9435 47.5547C65.9766 47.4859 66.0031 47.4224 66.0295 47.3588C66.0653 47.2728 66.0957 47.1867 66.1262 47.1007C66.1566 47.0146 66.1844 46.9286 66.2096 46.8359C66.2281 46.7723 66.2453 46.7075 66.2612 46.6333Z" fill="#4285F4"/>
<path d="M65.6138 60.9998C67.6671 61.5147 70.6206 61.4049 72.511 60.4239C72.5151 60.4211 72.5201 60.42 72.5249 60.4209C72.5297 60.4217 72.534 60.4245 72.5368 60.4285C72.5397 60.4326 72.5407 60.4375 72.5399 60.4424C72.539 60.4472 72.5362 60.4515 72.5322 60.4543C70.9065 61.8828 67.487 62.035 65.6019 61.0342C65.5981 61.032 65.5952 61.0286 65.5937 61.0246C65.5922 61.0206 65.5921 61.0161 65.5935 61.012C65.595 61.0079 65.5978 61.0045 65.6014 61.0022C65.6051 61 65.6095 60.9991 65.6138 60.9998Z" fill="#4285F4"/>
</svg>
