<svg width="44" height="44" viewBox="0 0 44 44" fill="none" xmlns="http://www.w3.org/2000/svg">
<mask id="mask0_337_2217" style="mask-type:alpha" maskUnits="userSpaceOnUse" x="0" y="0" width="44" height="44">
<path d="M24.9325 22.2119C26.9155 17.1516 29.0714 10.2482 29.0714 7.85477C29.0714 3.91002 25.8735 0.711914 21.9286 0.711914C17.9837 0.711914 14.7857 3.91002 14.7857 7.85477C14.7857 10.2482 16.9417 17.1516 18.9247 22.2119C16.9417 27.2722 14.7857 34.1756 14.7857 36.5691C14.7857 40.5138 17.9837 43.7119 21.9286 43.7119C25.8735 43.7119 29.0714 40.5138 29.0714 36.5691C29.0714 34.1756 26.9155 27.2722 24.9325 22.2119Z" fill="white"/>
<path d="M22 19.2794C16.9399 17.2964 10.0362 15.1405 7.64286 15.1405C3.69797 15.1405 0.5 18.3385 0.5 22.2833C0.5 26.2282 3.69797 29.4262 7.64286 29.4262C10.0362 29.4262 16.9399 27.2702 22 25.2873C27.0601 27.2702 33.9638 29.4262 36.3571 29.4262C40.302 29.4262 43.5 26.2282 43.5 22.2833C43.5 18.3385 40.302 15.1405 36.3571 15.1405C33.9638 15.1405 27.0601 17.2964 22 19.2794Z" fill="white"/>
</mask>
<g mask="url(#mask0_337_2217)">
<rect x="-21" y="-20.7881" width="64.5" height="64.5" fill="#EA4334"/>
</g>
</svg>
